<?xml version="1.0" encoding="UTF-8" standalone="no"?>
<svg
   version="1.1"
   width="8.6739645in"
   height="1.7716582in"
   viewBox="0 0 624.5262 127.55964"
   id="svg10"
   sodipodi:docname="Logo_Farbe.svg"
   inkscape:version="1.3.2 (091e20e, 2023-11-25, custom)"
   xmlns:inkscape="http://www.inkscape.org/namespaces/inkscape"
   xmlns:sodipodi="http://sodipodi.sourceforge.net/DTD/sodipodi-0.dtd"
   xmlns="http://www.w3.org/2000/svg"
   xmlns:svg="http://www.w3.org/2000/svg">
  <defs
     id="defs10" />
  <sodipodi:namedview
     id="namedview10"
     pagecolor="#ffffff"
     bordercolor="#000000"
     borderopacity="0.25"
     inkscape:showpageshadow="2"
     inkscape:pageopacity="0.0"
     inkscape:pagecheckerboard="true"
     inkscape:deskcolor="#d1d1d1"
     inkscape:document-units="in"
     inkscape:zoom="2.3850345"
     inkscape:cx="354.50221"
     inkscape:cy="78.615216"
     inkscape:window-width="3840"
     inkscape:window-height="2089"
     inkscape:window-x="-8"
     inkscape:window-y="-8"
     inkscape:window-maximized="1"
     inkscape:current-layer="layer1" />
  <g
     inkscape:groupmode="layer"
     id="layer3"
     inkscape:label="Fußzeile"
     transform="translate(-108.67366,-233.8577)">
    <path
       d="m 620.0756,353.7774 1.8777,7.0889 2.3834,-0.5877 -6.103,-21.4123 h -2.8891 l -6.103,21.4123 2.3834,0.5877 1.8776,-7.0889 z m -0.578,-1.9406 h -5.417 l 2.6725,-10.0919 h 0.072 z m 16.9008,6.6631 v -5.7574 h 3.3947 c 2.3111,0 3.5391,1.3583 3.5391,3.0404 0,2.2963 -1.9862,2.717 -4.1171,2.717 z m 0,-7.6983 v -5.2722 h 2.5642 c 1.6974,0 3.2862,0.5497 3.2862,2.5552 0,1.5202 -1.0474,2.717 -3.1419,2.717 z m 3.2865,9.6389 c 3.9361,0 6.1752,-1.779 6.1752,-4.8195 0,-1.9082 -1.1554,-3.4934 -3.2139,-4.0753 1.4445,-0.7118 2.1305,-2.0055 2.1305,-3.4611 0,-2.8786 -2.0585,-4.4961 -6.8252,-4.4961 h -5.9227 v 1.9409 h 1.9502 v 12.9705 h -1.9502 v 1.9406 z m 15.9618,0 h 2.4194 v -7.9245 h 7.9087 v -1.9409 h -7.9087 v -5.0457 h 9.4258 v -1.9409 h -11.8452 z m 29.5042,-4.593 1.7334,5.0188 2.3833,-0.7815 -5.9221,-16.4963 h -3.1062 l -5.9222,16.4963 2.3834,0.7815 1.7694,-5.0188 z m -0.686,-1.9409 h -5.345 l 2.6725,-7.7949 z m 14.3005,6.5339 h 12.2785 v -1.9406 h -9.8589 v -14.9114 h -2.4196 z m 21.6677,0 h 12.2786 v -1.9406 h -9.8589 v -14.9114 h -2.4197 z"
       style="fill:#009138;fill-opacity:1;fill-rule:evenodd"
       id="Abfall" />
    <path
       d="m 425.0656,353.7774 1.8777,7.0889 2.3836,-0.5877 -6.1032,-21.4123 h -2.8888 l -6.103,21.4123 2.3833,0.5877 1.8777,-7.0889 z m -0.5777,-1.9406 h -5.417 l 2.6722,-10.0919 h 0.0723 z m 16.9007,6.6631 v -5.7574 h 3.3948 c 2.3111,0 3.5391,1.3583 3.5391,3.0404 0,2.2963 -1.9863,2.717 -4.1171,2.717 z m 0,-7.6983 v -5.2722 h 2.5643 c 1.6973,0 3.2859,0.5497 3.2859,2.5552 0,1.5202 -1.0471,2.717 -3.1417,2.717 z m 3.2865,9.6389 c 3.9359,0 6.1753,-1.779 6.1753,-4.8195 0,-1.9082 -1.1557,-3.4934 -3.2139,-4.0753 1.4442,-0.7118 2.1305,-2.0055 2.1305,-3.4611 0,-2.8786 -2.0585,-4.4961 -6.8253,-4.4961 h -5.9227 v 1.9409 h 1.9503 v 12.9705 h -1.9503 v 1.9406 z m 12.9643,-17.0135 2.7085,17.4393 h 0.8305 l 3.9365,-10.3882 3.9365,10.3882 h 0.8302 l 2.7085,-17.4393 -2.4556,-0.2588 -1.4805,11.8383 h -0.0723 l -3.142,-8.2803 h -0.6499 l -3.1417,8.2803 h -0.0723 l -1.4448,-11.8383 z m 32.5017,12.4205 1.7334,5.0188 2.3834,-0.7815 -5.9224,-16.4963 h -3.106 l -5.9224,16.4963 2.3837,0.7815 1.7694,-5.0188 z m -0.6862,-1.9409 h -5.3448 l 2.6725,-7.7949 z m 12.8925,1.8114 c 0.5777,3.0081 2.7805,5.019 6.2836,5.019 3.4667,0 5.9584,-1.8167 5.9584,-5.019 0,-1.7464 -0.9026,-3.1051 -2.6,-3.9461 l -4.0084,-1.5849 c -1.4448,-0.5822 -2.528,-1.0349 -2.528,-2.62 0,-1.5203 1.5169,-2.2318 3.0694,-2.2318 2.0585,0 3.0336,1.1645 3.467,2.814 l 2.3111,-0.6146 c -0.7582,-2.6197 -2.5999,-4.2372 -5.7418,-4.2372 -2.9611,0 -5.5253,1.5852 -5.5253,4.4314 0,3.1697 2.6002,3.8169 5.3447,4.8518 1.8417,0.6792 3.7919,1.1968 3.7919,3.2669 0,1.876 -1.5528,2.8463 -3.539,2.8463 -2.528,0 -3.6474,-1.5202 -4.1171,-3.5904 z m 21.6677,0 c 0.5778,3.0081 2.7806,5.019 6.2836,5.019 3.4668,0 5.9584,-1.8167 5.9584,-5.019 0,-1.7464 -0.9025,-3.1051 -2.5996,-3.9461 l -4.0088,-1.5849 c -1.4448,-0.5822 -2.5279,-1.0349 -2.5279,-2.62 0,-1.5203 1.5168,-2.2318 3.0693,-2.2318 2.0586,0 3.0337,1.1645 3.4674,2.814 l 2.3108,-0.6146 c -0.7583,-2.6197 -2.6,-4.2372 -5.7419,-4.2372 -2.961,0 -5.5253,1.5852 -5.5253,4.4314 0,3.1697 2.6003,3.8169 5.3448,4.8518 1.8416,0.6792 3.7919,1.1968 3.7919,3.2669 0,1.876 -1.5529,2.8463 -3.5391,2.8463 -2.5279,0 -3.6473,-1.5202 -4.117,-3.5904 z m 22.6066,4.7225 h 11.7369 v -1.9406 h -9.3172 v -5.9839 h 7.6921 v -1.9409 h -7.6921 v -5.0457 h 9.3172 v -1.9409 h -11.7369 z m 23.7983,-9.1536 v -5.7575 h 3.9005 c 2.1665,0 3.1779,1.1319 3.1779,2.6521 0,1.9086 -1.5531,3.1054 -3.9002,3.1054 z m -2.4194,9.1536 h 2.4194 v -7.213 h 3.5031 l 4.8033,7.6388 2.0942,-1.1373 -4.6225,-6.825 c 2.2751,-0.6145 3.8282,-2.6523 3.8282,-4.7225 0,-3.2666 -2.4919,-4.593 -5.6335,-4.593 h -6.3922 z"
       style="fill:#e2001a;fill-opacity:1;fill-rule:evenodd"
       id="Abwasser" />
    <path
       d="m 275.197,338.4456 -1.1556,16.2051 h -0.072 l -3.5034,-11.3533 h -0.722 l -3.503,11.3533 h -0.0723 l -1.1557,-16.2051 -2.4194,0.4207 2.4194,22 h 1.0474 l 4.0085,-13.0405 h 0.0723 l 4.0084,13.0405 h 1.0474 l 2.4194,-22 z m 19.9344,17.4019 1.7334,5.0188 2.3834,-0.7815 -5.9225,-16.4963 h -3.1059 l -5.9224,16.4963 2.3834,0.7815 1.7696,-5.0188 z m -0.6863,-1.9409 h -5.3447 l 2.6725,-7.7949 z m 12.8923,1.8114 c 0.578,3.0081 2.7808,5.019 6.2838,5.019 3.4668,0 5.9585,-1.8167 5.9585,-5.019 0,-1.7464 -0.9026,-3.1051 -2.6,-3.9461 l -4.0085,-1.5849 c -1.4448,-0.5822 -2.5282,-1.0349 -2.5282,-2.62 0,-1.5203 1.5171,-2.2318 3.0697,-2.2318 2.0585,0 3.0336,1.1645 3.467,2.814 l 2.3111,-0.6146 c -0.7583,-2.6197 -2.5999,-4.2372 -5.7421,-4.2372 -2.9608,0 -5.525,1.5852 -5.525,4.4314 0,3.1697 2.6002,3.8169 5.3447,4.8518 1.8416,0.6792 3.7919,1.1968 3.7919,3.2669 0,1.876 -1.5528,2.8463 -3.5391,2.8463 -2.5279,0 -3.6473,-1.5202 -4.117,-3.5904 z m 21.6677,0 c 0.578,3.0081 2.7808,5.019 6.2839,5.019 3.4667,0 5.9584,-1.8167 5.9584,-5.019 0,-1.7464 -0.9025,-3.1051 -2.5999,-3.9461 l -4.0085,-1.5849 c -1.4448,-0.5822 -2.5282,-1.0349 -2.5282,-2.62 0,-1.5203 1.5171,-2.2318 3.0696,-2.2318 2.0585,0 3.0336,1.1645 3.4671,2.814 l 2.3111,-0.6146 c -0.7583,-2.6197 -2.6,-4.2372 -5.7422,-4.2372 -2.9608,0 -5.525,1.5852 -5.525,4.4314 0,3.1697 2.6002,3.8169 5.3447,4.8518 1.8417,0.6792 3.7919,1.1968 3.7919,3.2669 0,1.876 -1.5528,2.8463 -3.539,2.8463 -2.528,0 -3.6474,-1.5202 -4.1171,-3.5904 z m 22.6069,4.7225 h 11.7369 v -1.9406 h -9.3175 v -5.9839 h 7.6923 v -1.9409 h -7.6923 v -5.0457 h 9.3175 v -1.9409 H 351.612 Z m 23.7983,-9.1536 v -5.7575 h 3.9004 c 2.1666,0 3.1777,1.1319 3.1777,2.6521 0,1.9086 -1.5528,3.1054 -3.8999,3.1054 z m -2.4194,9.1536 h 2.4194 v -7.213 h 3.5027 l 4.8033,7.6388 2.0946,-1.1373 -4.6225,-6.825 c 2.2751,-0.6145 3.8282,-2.6523 3.8282,-4.7225 0,-3.2666 -2.4919,-4.593 -5.6339,-4.593 h -6.3918 z"
       style="fill:#01509d;fill-opacity:1;fill-rule:evenodd"
       id="Wasser" />
  </g>
  <g
     inkscape:groupmode="layer"
     id="layer2"
     inkscape:label="Stadtwerke Sundern"
     transform="translate(-108.67366,-233.8577)">
    <path
       d="m 414.8875,296.1649 c 0,1.9769 1.0333,2.9656 3.0991,2.9656 h 27.0363 v -20.9608 h 8.9226 v 27.9477 h -37.4017 c -3.6332,0 -6.3048,-0.8881 -8.0144,-2.664 -1.7098,-1.7762 -2.5648,-3.7364 -2.5648,-5.8811 v -19.4026 h 8.9229 z m 86.1843,-8.0929 c 0,-1.9434 -1.0332,-2.9154 -3.0988,-2.9154 h -26.3951 v 20.9608 h -8.9229 v -27.9477 h 36.7605 c 3.562,0 6.2516,0.9049 8.068,2.7145 1.6741,1.6755 2.5112,3.619 2.5112,5.8309 v 19.4023 h -8.9229 z m 32.326,18.0454 c -6.0911,0 -10.2767,-2.1113 -12.5566,-6.3335 -1.1398,-2.1112 -1.7096,-4.6579 -1.7096,-7.6402 0,-6.0656 2.2085,-10.1872 6.6254,-12.3653 2.1731,-1.0724 4.7197,-1.6087 7.6408,-1.6087 h 27.8374 v -11.1588 h 8.9229 v 39.1065 z m 1.1753,-20.9608 c -2.0659,0 -3.6332,0.7038 -4.7019,2.1112 -0.926,1.2064 -1.3892,2.8315 -1.3892,4.8759 0,2.044 0.4632,3.6692 1.3892,4.8756 1.0687,1.4074 2.636,2.1112 4.7019,2.1112 h 26.6621 v -13.9739 z m 60.3771,14.3759 h 31.0433 v 6.5849 h -32.2189 c -4.6306,0 -8.166,-1.2314 -10.6061,-3.6944 -2.44,-2.4631 -3.6601,-5.8896 -3.6601,-10.2793 0,-4.39 1.2201,-7.8163 3.6601,-10.2793 2.4401,-2.463 5.9755,-3.6947 10.6061,-3.6947 h 32.2189 v 6.5849 h -31.0433 c -1.6387,0 -2.9923,0.4357 -4.0609,1.3068 -0.4987,0.4022 -1.1399,1.3405 -1.9233,2.8151 l -0.0536,0.1003 h 37.0811 v 6.2833 h -37.0811 l 0.0536,0.1508 c 0.7123,1.4408 1.3535,2.3791 1.9233,2.8148 1.0686,0.8714 2.4222,1.3068 4.0609,1.3068 z m 73.3606,-11.5107 c 0,-0.9382 -0.3206,-1.6755 -0.9618,-2.2116 -0.4632,-0.4022 -1.1755,-0.6032 -2.1373,-0.6032 l -22.1737,-0.0504 v 20.9608 h -8.9229 v -27.9477 l 32.5927,-0.1003 c 3.4906,0 6.1625,0.9215 8.0147,2.7646 1.6741,1.6753 2.5112,3.6023 2.5112,5.7804 v 2.9155 h -8.9229 z m 54.9805,0.0502 c 0,-1.9434 -1.0332,-2.9154 -3.0988,-2.9154 h -26.3951 v 20.9608 h -8.9229 v -27.9477 h 36.7605 c 3.562,0 6.2516,0.9049 8.068,2.7145 1.6741,1.6755 2.5112,3.619 2.5112,5.8309 v 19.4023 h -8.9229 z"
       style="fill:#9c9e9f;fill-rule:evenodd"
       id="Unten" />
    <path
       d="m 427.6494,261.2795 h -17.8036 c -2.0721,0 -3.5677,-0.4606 -4.4861,-1.3822 -0.5885,-0.5992 -0.9771,-1.2787 -1.1656,-2.0389 -0.1412,-0.5069 -0.212,-1.2901 -0.212,-2.35 v -8.9158 h -3.5323 v -4.5269 h 3.5323 v -7.6717 h 5.8992 v 7.6717 h 17.7681 v 4.5269 h -17.7681 v 7.4991 c 0,1.0596 0.2471,1.7852 0.7418,2.177 0.4005,0.3226 1.0715,0.4839 2.0134,0.4839 h 15.0129 z m 6.5698,-14.6869 v -4.5269 h 23.5611 c 2.3314,0 4.1799,0.599 5.5457,1.7969 0.8478,0.7373 1.4249,1.6013 1.7311,2.592 0.2117,0.737 0.3177,1.7739 0.3177,3.1102 v 11.7147 h -26.3162 c -1.931,0 -3.4498,-0.5185 -4.5567,-1.5551 -1.1067,-1.0366 -1.6603,-2.488 -1.6603,-4.3543 0,-1.866 0.5593,-3.3117 1.6781,-4.3367 1.1183,-1.0253 2.6314,-1.5378 4.5389,-1.5378 h 20.4173 v -0.1729 c 0,-1.4284 -0.5417,-2.2924 -1.6251,-2.5917 -0.3296,-0.0922 -0.8359,-0.1384 -1.5188,-0.1384 z m 25.2567,10.16 v -2.9376 h -18.8631 c -1.2478,0 -1.872,0.4955 -1.872,1.4862 0,0.9675 0.6242,1.4514 1.872,1.4514 z m 21.5122,4.5269 c -4.0272,0 -6.7938,-1.4513 -8.3013,-4.3543 -0.7534,-1.4513 -1.1302,-3.2023 -1.1302,-5.2526 0,-4.1698 1.4599,-7.0036 4.3801,-8.5011 1.4366,-0.7373 3.1204,-1.1058 5.0514,-1.1058 h 18.4036 v -7.6717 h 5.8992 v 26.8855 z m 0.7769,-14.4102 c -1.3657,0 -2.402,0.4836 -3.1084,1.4513 -0.6123,0.8294 -0.9185,1.9466 -0.9185,3.352 0,1.4054 0.3062,2.5225 0.9185,3.352 0.7064,0.9677 1.7427,1.4516 3.1084,1.4516 h 17.6267 v -9.6069 z m 56.907,14.4102 h -17.8036 c -2.0721,0 -3.5677,-0.4606 -4.4861,-1.3822 -0.5885,-0.5992 -0.9771,-1.2787 -1.1656,-2.0389 -0.1412,-0.5069 -0.2118,-1.2901 -0.2118,-2.35 v -8.9158 h -3.5325 v -4.5269 h 3.5325 v -7.6717 h 5.8989 v 7.6717 h 17.7682 v 4.5269 h -17.7682 v 7.4991 c 0,1.0596 0.2472,1.7852 0.7419,2.177 0.4005,0.3226 1.0715,0.4839 2.0134,0.4839 h 15.0129 z m 11.0914,-6.8423 c 0,1.3592 0.6828,2.039 2.0489,2.039 h 9.6431 v -14.4105 h 5.8992 v 14.4105 h 11.5158 v -14.4105 h 5.8989 v 19.2138 H 550.823 c -2.3313,0 -4.0975,-0.6219 -5.2986,-1.8661 -1.1066,-1.152 -1.6602,-2.4882 -1.6602,-4.0087 v -13.339 h 5.8992 z m 51.0429,2.3154 h 20.5234 v 4.5269 h -21.3004 c -3.0617,0 -5.3989,-0.8467 -7.0118,-2.5398 -1.6132,-1.6935 -2.4196,-4.0491 -2.4196,-7.0671 0,-3.018 0.8064,-5.3736 2.4196,-7.0671 1.6129,-1.6931 3.9501,-2.5398 7.0118,-2.5398 h 21.3004 v 4.5269 h -20.5234 c -1.0834,0 -1.978,0.2997 -2.6844,0.8986 -0.3297,0.2764 -0.7538,0.9216 -1.2719,1.9352 l -0.0352,0.0692 h 24.5149 v 4.3194 h -24.5149 l 0.0352,0.1038 c 0.4711,0.9907 0.8949,1.6358 1.2719,1.9352 0.7064,0.5989 1.601,0.8986 2.6844,0.8986 z m 48.4996,-7.9138 c 0,-0.6449 -0.2117,-1.1517 -0.6358,-1.5205 -0.3061,-0.2764 -0.777,-0.4147 -1.4128,-0.4147 l -14.6593,-0.0343 v 14.4102 h -5.8992 v -19.2138 l 21.5475,-0.0692 c 2.308,0 4.074,0.6336 5.2988,1.9007 1.1064,1.152 1.66,2.4766 1.66,3.9741 v 2.0044 h -5.8992 z m 38.0438,-4.1814 h 5.1574 v -2.6609 h -5.1574 z m -21.1944,9.8144 h 20.7706 c 1.3658,0 2.3902,0.4836 3.0731,1.4513 0.6122,0.8295 0.9184,1.9469 0.9184,3.352 0,0.7373 -0.0706,1.3825 -0.212,1.9352 h 6.2875 c 0.0944,-0.5527 0.1414,-1.1979 0.1414,-1.9352 0,-4.1238 -1.4601,-6.9573 -4.3801,-8.5011 -1.4128,-0.737 -3.0965,-1.1058 -5.0513,-1.1058 l -21.5476,0.0346 v -15.2742 h -5.8991 v 26.7817 h 5.8991 z m 26.3872,-9.8144 c 0,3.3406 -1.7192,5.0108 -5.1574,5.0108 v -5.0108 z m -5.1928,0 c 0,1.3363 -0.6593,2.5112 -1.978,3.5249 -1.3187,1.0137 -2.7201,1.5205 -4.2035,1.5205 h 6.1815 z m 25.327,12.0952 h 20.5234 v 4.5269 h -21.3004 c -3.0617,0 -5.3988,-0.8467 -7.0118,-2.5398 -1.6132,-1.6935 -2.4196,-4.0491 -2.4196,-7.0671 0,-3.018 0.8064,-5.3736 2.4196,-7.0671 1.613,-1.6931 3.9501,-2.5398 7.0118,-2.5398 h 21.3004 v 4.5269 h -20.5234 c -1.0834,0 -1.978,0.2997 -2.6844,0.8986 -0.33,0.2764 -0.7537,0.9216 -1.2719,1.9352 l -0.0352,0.0692 h 24.5149 v 4.3194 h -24.5149 l 0.0352,0.1038 c 0.4711,0.9907 0.8949,1.6358 1.2719,1.9352 0.7064,0.5989 1.601,0.8986 2.6844,0.8986 z"
       style="fill:#9c9e9f;fill-rule:evenodd"
       id="Oben" />
    <path
       d="m 286.9872,277.8358 c -7.6859,0 -13.9181,-1.9618 -18.6971,-5.8853 -4.7789,-3.9234 -7.1682,-9.2483 -7.1682,-15.9743 0,-8.8821 3.9906,-15.3063 11.9718,-19.2731 3.843,-1.8969 8.4742,-2.8454 13.8935,-2.8454 H 391.631 v 16.9444 h -99.7665 c -5.4193,0 -8.1292,1.811 -8.1292,5.4326 0,3.6218 2.7099,5.4326 8.1292,5.4326 l 78.3351,0.1295 c 7.6856,0 13.9178,1.9831 18.6968,5.9499 4.7789,3.9666 7.1685,9.313 7.1685,16.039 0,9.0545 -3.9906,15.4786 -11.9718,19.2728 -3.7446,1.811 -8.3758,2.7164 -13.8935,2.7164 H 261.1219 v -16.9446 l 104.2004,0.1295 c 5.4193,0 8.1289,-1.8541 8.1289,-5.5621 0,-3.6216 -2.7096,-5.4326 -8.1289,-5.4326 z"
       style="fill:#9c9e9f;fill-rule:evenodd"
       id="Buchstabe_gro__" />
  </g>
  <g
     inkscape:groupmode="layer"
     id="layer1"
     inkscape:label="Logo"
     transform="translate(-108.67366,-233.8577)">
    <path
       d="m 235.9878,297.3543 c 0.002,0.1252 0.004,0.2507 0.004,0.3764 0,35.1671 -28.5193,63.6866 -63.6865,63.6866 -5.4975,0 -10.8323,-0.6974 -15.9214,-2.0077 27.4651,-7.0719 47.7647,-32.0094 47.7647,-61.6789 0,-0.2482 -0.005,-0.4953 -0.008,-0.7428 h 0.009 c 0.0346,-8.7623 7.1504,-15.8575 15.9208,-15.8575 8.7917,0 15.9215,7.1299 15.9215,15.9217 0,0.1011 -0.002,0.2016 -0.004,0.3022 z"
       style="display:inline;fill:#009138;fill-opacity:1;fill-rule:evenodd"
       id="Tropfen_Abfall" />
    <path
       d="m 140.1097,243.1248 c 0.1075,-0.0644 0.2152,-0.1286 0.3241,-0.1915 30.4556,-17.5835 69.4138,-7.1448 86.9974,23.3109 2.7488,4.761 4.8122,9.7298 6.222,14.7922 -19.8569,-20.2496 -51.6032,-25.3608 -77.2978,-10.526 -0.215,0.1241 -0.4263,0.2522 -0.6393,0.3784 l -0.004,-0.008 c -7.6057,4.3512 -17.3082,1.7363 -21.6934,-5.8591 -4.3959,-7.6138 -1.7861,-17.3534 5.8278,-21.7493 0.0876,-0.0505 0.1755,-0.0991 0.2636,-0.1478 z"
       style="fill:#01509d;fill-opacity:1;fill-rule:evenodd"
       id="Tropfen_Wasser" />
    <path
       d="m 140.853,353.2237 c -0.1095,-0.0608 -0.219,-0.122 -0.3279,-0.1849 -30.4555,-17.5835 -40.8945,-56.5417 -23.3109,-86.9974 2.7488,-4.761 6.0201,-9.0324 9.6994,-12.7845 -7.6081,27.3214 3.8386,57.3701 29.5332,72.2048 0.215,0.1242 0.4316,0.2432 0.6473,0.3645 l -0.005,0.008 c 7.571,4.4112 10.1577,14.1212 5.7725,21.7166 -4.3958,7.6138 -14.1353,10.2235 -21.7492,5.8276 -0.0876,-0.0505 -0.1737,-0.1024 -0.2599,-0.1544 z"
       style="fill:#e2001a;fill-opacity:1;fill-rule:evenodd"
       id="Tropfen_Abwasser" />
    <path
       d="m 150.3479,297.0632 22.5167,-22.5167 22.5165,22.5167 -22.5165,22.5165 z"
       style="display:inline;fill:#9c9d9f;fill-opacity:1;fill-rule:evenodd"
       id="Raute" />
  </g>
</svg>
